<svg xmlns="http://www.w3.org/2000/svg" width="192" height="192" viewBox="0 0 192 192">
  <defs>
    <linearGradient id="bg" x1="0%" y1="0%" x2="100%" y2="100%">
      <stop offset="0%" style="stop-color:#0a1628"/>
      <stop offset="50%" style="stop-color:#102a43"/>
      <stop offset="100%" style="stop-color:#0a1628"/>
    </linearGradient>
    <linearGradient id="glow" x1="0%" y1="0%" x2="100%" y2="100%">
      <stop offset="0%" style="stop-color:#00d4ff"/>
      <stop offset="100%" style="stop-color:#00ff88"/>
    </linearGradient>
  </defs>
  <rect width="192" height="192" rx="40" fill="url(#bg)"/>
  <rect x="4" y="4" width="184" height="184" rx="36" fill="none" stroke="#00d4ff" stroke-width="2" opacity="0.3"/>
  <g transform="translate(40, 40)">
    <rect x="10" y="10" width="92" height="92" rx="16" fill="none" stroke="url(#glow)" stroke-width="3"/>
    <rect x="20" y="30" width="72" height="72" rx="8" fill="rgba(0,212,255,0.1)"/>
    <line x1="20" y1="50" x2="92" y2="50" stroke="#00d4ff" stroke-width="1" opacity="0.5"/>
    <line x1="20" y1="70" x2="92" y2="70" stroke="#00d4ff" stroke-width="1" opacity="0.5"/>
    <line x1="20" y1="90" x2="92" y2="90" stroke="#00d4ff" stroke-width="1" opacity="0.5"/>
    <rect x="26" y="54" width="16" height="12" rx="3" fill="#00ff88"/>
    <rect x="48" y="74" width="20" height="12" rx="3" fill="#00d4ff"/>
    <rect x="72" y="54" width="16" height="12" rx="3" fill="#bf00ff"/>
    <circle cx="96" cy="96" r="24" fill="url(#glow)" opacity="0.9"/>
    <text x="96" y="104" text-anchor="middle" font-family="Arial" font-size="32" font-weight="bold" fill="#0a1628">+</text>
  </g>
</svg>