<svg xmlns="http://www.w3.org/2000/svg" width="512" height="512" viewBox="0 0 512 512">
  <defs>
    <linearGradient id="bg" x1="0%" y1="0%" x2="100%" y2="100%">
      <stop offset="0%" style="stop-color:#0a1628"/>
      <stop offset="50%" style="stop-color:#102a43"/>
      <stop offset="100%" style="stop-color:#0a1628"/>
    </linearGradient>
    <linearGradient id="glow" x1="0%" y1="0%" x2="100%" y2="100%">
      <stop offset="0%" style="stop-color:#00d4ff"/>
      <stop offset="100%" style="stop-color:#00ff88"/>
    </linearGradient>
  </defs>
  <rect width="512" height="512" rx="100" fill="url(#bg)"/>
  <rect x="8" y="8" width="496" height="496" rx="92" fill="none" stroke="#00d4ff" stroke-width="4" opacity="0.3"/>
  <g transform="translate(100, 100)">
    <rect x="20" y="20" width="272" height="272" rx="40" fill="none" stroke="url(#glow)" stroke-width="6"/>
    <rect x="50" y="80" width="212" height="212" rx="20" fill="rgba(0,212,255,0.1)"/>
    <line x1="50" y1="140" x2="262" y2="140" stroke="#00d4ff" stroke-width="2" opacity="0.5"/>
    <line x1="50" y1="200" x2="262" y2="200" stroke="#00d4ff" stroke-width="2" opacity="0.5"/>
    <line x1="50" y1="260" x2="262" y2="260" stroke="#00d4ff" stroke-width="2" opacity="0.5"/>
    <rect x="70" y="155" width="50" height="35" rx="8" fill="#00ff88"/>
    <rect x="140" y="215" width="60" height="35" rx="8" fill="#00d4ff"/>
    <rect x="220" y="155" width="50" height="35" rx="8" fill="#bf00ff"/>
    <circle cx="280" cy="280" r="70" fill="url(#glow)" opacity="0.9"/>
    <text x="280" y="305" text-anchor="middle" font-family="Arial" font-size="80" font-weight="bold" fill="#0a1628">+</text>
  </g>
</svg>